<svg width="24" height="20" viewBox="0 0 24 20" fill="none" xmlns="http://www.w3.org/2000/svg">
<path d="M12 7.5C11.5272 7.5 11.0591 7.597 10.6223 7.78545C10.1856 7.97391 9.78871 8.25013 9.45442 8.59835C9.12012 8.94657 8.85495 9.35997 8.67403 9.81494C8.49312 10.2699 8.4 10.7575 8.4 11.25C8.4 11.7425 8.49312 12.2301 8.67403 12.6851C8.85495 13.14 9.12012 13.5534 9.45442 13.9017C9.78871 14.2499 10.1856 14.5261 10.6223 14.7145C11.0591 14.903 11.5272 15 12 15C12.9548 15 13.8705 14.6049 14.5456 13.9017C15.2207 13.1984 15.6 12.2446 15.6 11.25C15.6 10.2554 15.2207 9.30161 14.5456 8.59835C13.8705 7.89509 12.9548 7.5 12 7.5ZM21.6 3.75H18.72C18.5127 3.74015 18.3127 3.66748 18.1445 3.54092C17.9763 3.41435 17.8473 3.23939 17.7732 3.0375L17.028 0.71125C16.9534 0.50959 16.824 0.334936 16.6556 0.208627C16.4873 0.0823174 16.2873 0.00982274 16.08 0H7.92C7.524 0 7.0968 0.32 6.9732 0.71L6.2268 3.0375C6.15258 3.2393 6.02349 3.41417 5.85533 3.54072C5.68717 3.66727 5.48723 3.73999 5.28 3.75H2.4C1.08 3.75 0 4.875 0 6.25V17.5C0 18.875 1.08 20 2.4 20H21.6C22.92 20 24 18.875 24 17.5V6.25C24 4.875 22.92 3.75 21.6 3.75ZM12 17.5C10.4087 17.5 8.88258 16.8415 7.75736 15.6694C6.63214 14.4973 6 12.9076 6 11.25C6 9.5924 6.63214 8.00268 7.75736 6.83058C8.88258 5.65848 10.4087 5 12 5C13.5913 5 15.1174 5.65848 16.2426 6.83058C17.3679 8.00268 18 9.5924 18 11.25C18 12.9076 17.3679 14.4973 16.2426 15.6694C15.1174 16.8415 13.5913 17.5 12 17.5ZM21 7.75C20.7772 7.75 20.5636 7.65781 20.406 7.49372C20.2485 7.32962 20.16 7.10706 20.16 6.875C20.16 6.64294 20.2485 6.42038 20.406 6.25628C20.5636 6.09219 20.7772 6 21 6C21.2228 6 21.4364 6.09219 21.594 6.25628C21.7515 6.42038 21.84 6.64294 21.84 6.875C21.84 7.10706 21.7515 7.32962 21.594 7.49372C21.4364 7.65781 21.2228 7.75 21 7.75Z" fill="white"/>
</svg>
