<svg width="20" height="24" viewBox="0 0 20 24" fill="none" xmlns="http://www.w3.org/2000/svg">
<path d="M6.60695 3.65681L2.01075 8.25301C1.16684 9.09692 0.692733 10.2415 0.692733 11.435C0.692733 12.6285 1.16684 13.7731 2.01075 14.617C2.85467 15.4609 3.99926 15.935 5.19273 15.935C6.38621 15.935 7.5308 15.4609 8.37471 14.617L13.3245 9.66722C13.7933 9.19838 14.4292 8.93499 15.0922 8.93499C15.7553 8.93499 16.3912 9.19838 16.86 9.66722C17.3288 10.1361 17.5922 10.7719 17.5922 11.435C17.5922 12.098 17.3288 12.7339 16.86 13.2028L12.1436 17.9192C11.5048 17.614 10.7787 17.5445 10.0936 17.7229C9.40847 17.9013 8.80852 18.3162 8.39974 18.8942C7.99097 19.4723 7.79971 20.1762 7.85977 20.8816C7.91982 21.587 8.22732 22.2484 8.72792 22.749C9.22852 23.2496 9.88998 23.5571 10.5954 23.6172C11.3008 23.6773 12.0047 23.486 12.5827 23.0772C13.1607 22.6684 13.5756 22.0685 13.7541 21.3834C13.9325 20.6983 13.863 19.9722 13.5578 19.3334L18.2742 14.617C19.1181 13.7731 19.5922 12.6285 19.5922 11.435C19.5922 10.2415 19.1181 9.09692 18.2742 8.25301C17.4303 7.40909 16.2857 6.93499 15.0922 6.93499C13.8988 6.93499 12.7542 7.40909 11.9102 8.25301L6.9605 13.2028C6.49166 13.6716 5.85577 13.935 5.19273 13.935C4.52969 13.935 3.89381 13.6716 3.42497 13.2028C2.95613 12.7339 2.69273 12.098 2.69273 11.435C2.69273 10.7719 2.95613 10.1361 3.42497 9.66722L8.02116 5.07103L10.1425 7.19235L10.8496 0.828385L4.48563 1.53549L6.60695 3.65681Z" fill="#AEAEAE"/>
</svg>
