<svg width="9" height="15" viewBox="0 0 9 15" fill="none" xmlns="http://www.w3.org/2000/svg">
<path d="M0.344159 0.330173C0.123794 0.541647 0 0.828428 0 1.12745C0 1.42648 0.123794 1.71326 0.344159 1.92473L6.16269 7.50681L0.344159 13.0889C0.130039 13.3016 0.0115592 13.5864 0.0142373 13.8821C0.0169155 14.1778 0.140538 14.4606 0.358478 14.6697C0.576418 14.8788 0.871238 14.9974 1.17944 15C1.48764 15.0025 1.78457 14.8889 2.00626 14.6834L8.65584 8.30409C8.87621 8.09261 9 7.80583 9 7.50681C9 7.20778 8.87621 6.921 8.65584 6.70953L2.00626 0.330173C1.78583 0.118763 1.4869 0 1.17521 0C0.863519 0 0.564591 0.118763 0.344159 0.330173Z" fill="#414141" fill-opacity="0.35"/>
</svg>
