<svg width="14" height="14" viewBox="0 0 14 14" fill="none" xmlns="http://www.w3.org/2000/svg">
<path d="M6.97535 0C8.82533 0 10.5995 0.737498 11.9077 2.05025C13.2158 3.36301 13.9507 5.14348 13.9507 7C13.9507 8.85652 13.2158 10.637 11.9077 11.9497C10.5995 13.2625 8.82533 14 6.97535 14C5.12537 14 3.35117 13.2625 2.04303 11.9497C0.734901 10.637 0 8.85652 0 7C0 5.14348 0.734901 3.36301 2.04303 2.05025C3.35117 0.737498 5.12537 0 6.97535 0ZM6.10642 8.381L4.5569 6.825C4.50135 6.76925 4.4354 6.72503 4.36282 6.69486C4.29024 6.66469 4.21245 6.64917 4.13389 6.64917C4.05533 6.64917 3.97754 6.66469 3.90496 6.69486C3.83238 6.72503 3.76644 6.76925 3.71089 6.825C3.5987 6.93758 3.53567 7.09028 3.53567 7.2495C3.53567 7.40872 3.5987 7.56142 3.71089 7.674L5.68392 9.654C5.73931 9.71003 5.80521 9.75449 5.87781 9.78484C5.95041 9.81518 6.02828 9.83081 6.10692 9.83081C6.18557 9.83081 6.26343 9.81518 6.33604 9.78484C6.40864 9.75449 6.47453 9.71003 6.52993 9.654L10.6155 5.553C10.6718 5.49748 10.7166 5.43133 10.7473 5.35836C10.7779 5.28539 10.7939 5.20705 10.7943 5.12785C10.7947 5.04864 10.7794 4.97015 10.7494 4.8969C10.7194 4.82365 10.6752 4.75708 10.6194 4.70104C10.5637 4.645 10.4974 4.6006 10.4244 4.5704C10.3515 4.54019 10.2733 4.52478 10.1943 4.52506C10.1154 4.52533 10.0373 4.54129 9.96458 4.572C9.89183 4.60271 9.82586 4.64757 9.77048 4.704L6.10642 8.381Z" fill="#74CA65"/>
</svg>
