<svg width="25" height="25" viewBox="0 0 25 25" fill="none" xmlns="http://www.w3.org/2000/svg">
<path d="M23.5469 8.56846L16.2522 7.45829L12.9913 0.535539C12.9022 0.345998 12.7557 0.192561 12.5747 0.0992944C12.1208 -0.135375 11.5691 0.0601828 11.3422 0.535539L8.08125 7.45829L0.786595 8.56846C0.585482 8.59855 0.401607 8.69783 0.260828 8.84826C0.0906333 9.03144 -0.00315147 9.27788 8.08645e-05 9.53344C0.0033132 9.78899 0.103298 10.0327 0.278066 10.2111L5.55585 15.5995L4.30895 23.2082C4.27971 23.3852 4.29841 23.5673 4.36294 23.7337C4.42746 23.9001 4.53523 24.0443 4.67402 24.1498C4.81281 24.2554 4.97707 24.3181 5.14816 24.3309C5.31926 24.3437 5.49035 24.306 5.64204 24.2221L12.1667 20.6299L18.6914 24.2221C18.8695 24.3214 19.0764 24.3545 19.2746 24.3184C19.7745 24.2281 20.1107 23.7317 20.0245 23.2082L18.7776 15.5995L24.0554 10.2111C24.199 10.0637 24.2938 9.87118 24.3226 9.66057C24.4001 9.13407 24.0496 8.64668 23.5469 8.56846Z" fill="#C4C4C4"/>
</svg>
