<svg width="13" height="14" viewBox="0 0 13 14" fill="none" xmlns="http://www.w3.org/2000/svg">
<path d="M9.0687 11.3405C9.20013 11.1589 9.25414 10.9327 9.21889 10.7113C9.18363 10.49 9.06199 10.2917 8.88067 10.16C8.87298 10.1542 8.30387 9.73201 7.47752 8.82452C9.00218 6.76038 9.86583 4.41207 10.2181 3.30694H11.4589C11.6833 3.30694 11.8985 3.21781 12.0571 3.05916C12.2158 2.90051 12.3049 2.68534 12.3049 2.46098C12.3049 2.23661 12.2158 2.02144 12.0571 1.86279C11.8985 1.70414 11.6833 1.61502 11.4589 1.61502H6.9984V0.845961C6.9984 0.621598 6.90928 0.406425 6.75063 0.247776C6.59198 0.0891277 6.3768 0 6.15244 0C5.92808 0 5.71291 0.0891277 5.55426 0.247776C5.39561 0.406425 5.30648 0.621598 5.30648 0.845961V1.61502H0.845961C0.621598 1.61502 0.406425 1.70414 0.247776 1.86279C0.0891277 2.02144 0 2.23661 0 2.46098C0 2.68534 0.0891277 2.90051 0.247776 3.05916C0.406425 3.21781 0.621598 3.30694 0.845961 3.30694H8.43077C8.0647 4.34324 7.39062 5.9794 6.36239 7.47368C5.15459 5.87097 4.70585 4.8339 4.70239 4.82544C4.61397 4.62109 4.44855 4.45985 4.24202 4.37667C4.03548 4.2935 3.80449 4.2951 3.59913 4.38113C3.39376 4.46716 3.2306 4.63068 3.14502 4.83623C3.05944 5.04178 3.05835 5.27278 3.14198 5.47913C3.16428 5.5322 3.70146 6.79537 5.17459 8.70648C5.20997 8.75223 5.24496 8.79684 5.27995 8.84144C3.77106 10.5468 2.29063 11.6047 1.67116 11.9461C1.47418 12.0536 1.32794 12.2348 1.26463 12.4501C1.20131 12.6654 1.2261 12.897 1.33354 13.0939C1.44098 13.2909 1.62227 13.4371 1.83753 13.5005C2.05278 13.5638 2.28438 13.539 2.48136 13.4316C2.56441 13.3862 4.35016 12.3976 6.38931 10.1404C7.25527 11.0663 7.85052 11.5031 7.88628 11.5285C7.97626 11.5939 8.07824 11.6409 8.18639 11.6668C8.29454 11.6927 8.40673 11.697 8.51656 11.6795C8.62638 11.662 8.73167 11.623 8.82642 11.5648C8.92116 11.5065 9.00349 11.4302 9.0687 11.3401V11.3405Z" fill="#414141"/>
</svg>
