<svg width="13" height="14" viewBox="0 0 13 14" fill="none" xmlns="http://www.w3.org/2000/svg">
<path d="M12.6015 5.17617L8.90416 4.61348L7.25137 1.10469C7.20623 1.00862 7.13197 0.930851 7.04022 0.883579C6.81014 0.764637 6.53055 0.863756 6.41551 1.10469L4.76273 4.61348L1.06543 5.17617C0.963499 5.19142 0.870302 5.24174 0.798948 5.31799C0.712685 5.41083 0.665151 5.53574 0.666789 5.66527C0.668427 5.7948 0.719105 5.91834 0.807685 6.00876L3.48273 8.73986L2.85074 12.5963C2.83591 12.686 2.84539 12.7783 2.8781 12.8627C2.91081 12.947 2.96543 13.0201 3.03577 13.0736C3.10612 13.1271 3.18937 13.1589 3.27609 13.1654C3.36281 13.1718 3.44953 13.1527 3.52641 13.1102L6.83344 11.2895L10.1405 13.1102C10.2308 13.1605 10.3356 13.1773 10.4361 13.159C10.6895 13.1133 10.8598 12.8617 10.8162 12.5963L10.1842 8.73986L12.8592 6.00876C12.932 5.93404 12.9801 5.83645 12.9946 5.72971C13.0339 5.46285 12.8563 5.21582 12.6015 5.17617Z" fill="url(#paint0_linear_85_336)"/>
<defs>
<linearGradient id="paint0_linear_85_336" x1="-3.98703" y1="0.0358382" x2="-0.580487" y2="17.1866" gradientUnits="userSpaceOnUse">
<stop stop-color="#FF7116"/>
<stop offset="1" stop-color="#FB9E48"/>
</linearGradient>
</defs>
</svg>
