<svg width="11" height="14" viewBox="0 0 11 14" fill="none" xmlns="http://www.w3.org/2000/svg">
<path d="M10.2011 5.9253C10.352 5.92531 10.4978 5.97895 10.6116 6.07631C10.7253 6.17367 10.7993 6.30817 10.8198 6.45492L10.8256 6.53828V10.8292C10.8257 11.4015 10.6032 11.9523 10.2037 12.3692C9.80412 12.7861 9.25757 13.0377 8.6755 13.0727L8.5356 13.0768H2.29004C1.70688 13.0768 1.14568 12.8585 0.720906 12.4663C0.296133 12.0742 0.0397894 11.5378 0.0041638 10.9665L0 10.8292V6.53828C4.8501e-05 6.38298 0.060161 6.23347 0.168191 6.11999C0.276221 6.00651 0.424114 5.9375 0.581986 5.92691C0.739859 5.91633 0.89594 5.96495 1.01869 6.06296C1.14144 6.16097 1.22171 6.30106 1.24328 6.45492L1.24911 6.53828V10.8292C1.24911 11.358 1.65882 11.7936 2.18345 11.8459L2.29004 11.8508H8.5356C8.79315 11.8507 9.04153 11.7569 9.23272 11.5876C9.42391 11.4182 9.54432 11.1852 9.5707 10.9338L9.57653 10.8292V6.53828C9.57653 6.37571 9.64233 6.2198 9.75945 6.10484C9.87658 5.98988 10.0354 5.9253 10.2011 5.9253ZM1.43814 3.64663L4.97147 0.17959C5.07722 0.075777 5.21741 0.0126574 5.36656 0.00170829C5.51571 -0.00924082 5.66392 0.0327077 5.78422 0.119926L5.85417 0.17959L9.38749 3.64663C9.50067 3.7557 9.56733 3.90294 9.57394 4.05848C9.58055 4.21401 9.52662 4.36619 9.4231 4.48413C9.31957 4.60207 9.1742 4.67693 9.01649 4.69352C8.85878 4.71011 8.70055 4.66719 8.5739 4.57346L8.50396 4.5138L6.03738 2.0921V8.37724C6.03737 8.52536 5.98271 8.66848 5.88351 8.78012C5.78431 8.89175 5.64728 8.96435 5.49776 8.9845L5.41282 8.99022C5.2619 8.99022 5.11608 8.93657 5.00234 8.83921C4.88859 8.74185 4.81462 8.60735 4.79409 8.4606L4.78826 8.37724V2.0921L2.32168 4.5138C2.21589 4.61783 2.07553 4.68108 1.92619 4.69203C1.77685 4.70298 1.62847 4.66091 1.50809 4.57346L1.43814 4.5138C1.33215 4.40996 1.26771 4.2722 1.25655 4.12563C1.24539 3.97906 1.28826 3.83343 1.37735 3.71529L1.43814 3.64663L4.97147 0.17959L1.43814 3.64663Z" fill="#F47934"/>
</svg>
