<svg width="10" height="14" viewBox="0 0 10 14" fill="none" xmlns="http://www.w3.org/2000/svg">
<path d="M6.54527 2.60465C7.23622 2.60465 7.80154 2.0186 7.80154 1.30233C7.80154 0.586047 7.23622 0 6.54527 0C5.85433 0 5.28901 0.586047 5.28901 1.30233C5.28901 2.0186 5.85433 2.60465 6.54527 2.60465ZM4.55409 10.4186L4.91213 8.7907L6.23121 10.093V13.3488C6.23121 13.707 6.51387 14 6.85934 14C7.20481 14 7.48747 13.707 7.48747 13.3488V9.67628C7.48747 9.31814 7.34928 8.97954 7.09803 8.73209L6.16839 7.81395L6.54527 5.86047C7.25313 6.69937 8.22215 7.25464 9.28393 7.42977C9.66081 7.48837 10 7.17581 10 6.7786C10 6.45954 9.77387 6.19256 9.46609 6.14047C8.51133 5.97767 7.71988 5.39163 7.29903 4.62326L6.6709 3.5814C6.41965 3.1907 6.04277 2.93023 5.60308 2.93023C5.41464 2.93023 5.28901 2.99535 5.10057 2.99535L2.6006 4.0893C2.37304 4.19014 2.17908 4.35808 2.04283 4.57226C1.90659 4.78643 1.83407 5.0374 1.83428 5.29395V6.83721C1.83428 7.19535 2.11694 7.48837 2.46241 7.48837C2.80789 7.48837 3.09055 7.19535 3.09055 6.83721V5.27442L4.22118 4.8186L3.21617 10.093L0.753894 9.57209C0.414703 9.50047 0.0817928 9.72837 0.0126983 10.08V10.106C-0.0563963 10.4577 0.16345 10.8028 0.502641 10.8744L3.08426 11.4084C3.40536 11.4744 3.73866 11.408 4.01319 11.2231C4.28772 11.0382 4.48179 10.7496 4.55409 10.4186Z" fill="#F0F0F0"/>
</svg>
