<svg width="20" height="24" viewBox="0 0 20 24" fill="none" xmlns="http://www.w3.org/2000/svg">
<path d="M6.60695 3.65693L2.01075 8.25313C1.16684 9.09704 0.692733 10.2416 0.692733 11.4351C0.692733 12.6286 1.16684 13.7732 2.01075 14.6171C2.85467 15.461 3.99926 15.9351 5.19273 15.9351C6.38621 15.9351 7.5308 15.461 8.37471 14.6171L13.3245 9.66734C13.7933 9.1985 14.4292 8.93511 15.0922 8.93511C15.7553 8.93511 16.3912 9.1985 16.86 9.66734C17.3288 10.1362 17.5922 10.7721 17.5922 11.4351C17.5922 12.0981 17.3288 12.734 16.86 13.2029L12.1436 17.9193C11.5048 17.6141 10.7787 17.5446 10.0936 17.723C9.40847 17.9015 8.80852 18.3163 8.39974 18.8944C7.99097 19.4724 7.79971 20.1763 7.85977 20.8817C7.91982 21.5871 8.22732 22.2486 8.72792 22.7492C9.22852 23.2498 9.88998 23.5573 10.5954 23.6173C11.3008 23.6774 12.0047 23.4861 12.5827 23.0773C13.1607 22.6686 13.5756 22.0686 13.7541 21.3835C13.9325 20.6984 13.863 19.9723 13.5578 19.3335L18.2742 14.6171C19.1181 13.7732 19.5922 12.6286 19.5922 11.4351C19.5922 10.2416 19.1181 9.09704 18.2742 8.25313C17.4303 7.40921 16.2857 6.93511 15.0922 6.93511C13.8988 6.93511 12.7542 7.40921 11.9102 8.25313L6.9605 13.2029C6.49166 13.6717 5.85577 13.9351 5.19273 13.9351C4.52969 13.9351 3.89381 13.6717 3.42497 13.2029C2.95613 12.734 2.69273 12.0982 2.69273 11.4351C2.69273 10.7721 2.95613 10.1362 3.42497 9.66734L8.02116 5.07115L10.1425 7.19247L10.8496 0.828507L4.48563 1.53561L6.60695 3.65693Z" fill="url(#paint0_linear_86_590)"/>
<defs>
<linearGradient id="paint0_linear_86_590" x1="-10.3806" y1="5.19509" x2="9.2811" y2="-9.01971" gradientUnits="userSpaceOnUse">
<stop stop-color="#FF7116"/>
<stop offset="1" stop-color="#FB9E48"/>
</linearGradient>
</defs>
</svg>
