<svg width="8" height="8" viewBox="0 0 8 8" fill="none" xmlns="http://www.w3.org/2000/svg">
<path d="M7.41887 2.69965L5.12055 2.34987L4.09315 0.168732C4.06508 0.109013 4.01892 0.0606698 3.96189 0.0312845C3.81887 -0.0426524 3.64507 0.0189617 3.57356 0.168732L2.54615 2.34987L0.247831 2.69965C0.184467 2.70913 0.126534 2.74041 0.0821785 2.78781C0.0285557 2.84552 -0.000992928 2.92317 2.54779e-05 3.00369C0.00104388 3.0842 0.032546 3.161 0.0876098 3.21721L1.75047 4.91492L1.35761 7.31218C1.3484 7.36795 1.35429 7.4253 1.37462 7.47774C1.39495 7.53017 1.42891 7.5756 1.47264 7.60885C1.51636 7.64211 1.56812 7.66187 1.62202 7.6659C1.67593 7.66992 1.72984 7.65805 1.77763 7.63163L3.83335 6.49982L5.88907 7.63163C5.9452 7.66291 6.01037 7.67334 6.07283 7.66196C6.23034 7.63352 6.33625 7.47712 6.30909 7.31218L5.91623 4.91492L7.57909 3.21721C7.62435 3.17076 7.65423 3.1101 7.66328 3.04374C7.68772 2.87786 7.57728 2.7243 7.41887 2.69965Z" fill="url(#paint0_linear_86_530)"/>
<defs>
<linearGradient id="paint0_linear_86_530" x1="-2.89289" y1="-0.49569" x2="-0.775308" y2="10.1656" gradientUnits="userSpaceOnUse">
<stop stop-color="#FF7116"/>
<stop offset="1" stop-color="#FB9E48"/>
</linearGradient>
</defs>
</svg>
