<svg width="14" height="13" viewBox="0 0 14 13" fill="none" xmlns="http://www.w3.org/2000/svg">
<path d="M7.61907 0.33634C7.37688 -0.112113 6.62372 -0.112113 6.38154 0.33634L0.0818505 11.9934C0.0251418 12.0979 -0.00297186 12.2149 0.000248621 12.3332C0.0034691 12.4515 0.0379139 12.567 0.100227 12.6684C0.16254 12.7697 0.250596 12.8536 0.355815 12.9117C0.461034 12.9698 0.579827 13.0002 0.70062 13H13.3C13.4207 13.0002 13.5394 12.9698 13.6446 12.9118C13.7497 12.8537 13.8377 12.7699 13.8999 12.6686C13.9622 12.5673 13.9966 12.4519 13.9998 12.3337C14.0029 12.2154 13.9748 12.0984 13.9181 11.9941L7.61907 0.33634ZM7.70027 10.9429H6.30034V9.57146H7.70027V10.9429ZM6.30034 8.20004V4.7715H7.70027L7.70097 8.20004H6.30034Z" fill="#DD3A3A"/>
</svg>
