<svg width="32" height="42" viewBox="0 0 32 42" fill="none" xmlns="http://www.w3.org/2000/svg">
<path d="M0.25 5.25C0.25 3.85761 0.803123 2.52226 1.78769 1.53769C2.77226 0.553123 4.10761 0 5.5 0L26.5 0C27.8924 0 29.2277 0.553123 30.2123 1.53769C31.1969 2.52226 31.75 3.85761 31.75 5.25V40.6875C31.7499 40.9249 31.6854 41.1578 31.5633 41.3615C31.4413 41.5651 31.2663 41.7319 31.057 41.8439C30.8477 41.956 30.6119 42.0092 30.3748 41.9978C30.1376 41.9865 29.908 41.911 29.7104 41.7795L16 34.3901L2.28962 41.7795C2.09198 41.911 1.86235 41.9865 1.62522 41.9978C1.38808 42.0092 1.1523 41.956 0.942999 41.8439C0.733698 41.7319 0.558711 41.5651 0.436674 41.3615C0.314638 41.1578 0.250123 40.9249 0.25 40.6875V5.25ZM5.5 2.625C4.80381 2.625 4.13613 2.90156 3.64384 3.39384C3.15156 3.88613 2.875 4.55381 2.875 5.25V38.2357L15.2729 31.7205C15.4883 31.5772 15.7413 31.5007 16 31.5007C16.2587 31.5007 16.5117 31.5772 16.7271 31.7205L29.125 38.2357V5.25C29.125 4.55381 28.8484 3.88613 28.3562 3.39384C27.8639 2.90156 27.1962 2.625 26.5 2.625H5.5Z" fill="#AEAEAE"/>
</svg>
