<svg width="48" height="54" viewBox="0 0 48 54" fill="none" xmlns="http://www.w3.org/2000/svg">
<path d="M0 12C0 5.37258 5.37258 0 12 0H24H36C42.6274 0 48 5.37258 48 12V36C48 42.6274 42.6274 48 36 48H33.1927C32.4014 48 31.614 48.1103 30.8532 48.3277C29.3155 48.767 27.9326 49.6304 26.8628 50.8191L24.7433 53.1741C24.3461 53.6155 23.6539 53.6155 23.2567 53.1741L21.466 51.1844C20.1846 49.7606 18.5072 48.7518 16.6489 48.2872C15.8858 48.0965 15.1023 48 14.3158 48H12C5.37258 48 0 42.6274 0 36V12Z" fill="url(#paint0_linear_62_539)"/>
<defs>
<linearGradient id="paint0_linear_62_539" x1="-2.5" y1="-3.5" x2="1.7192" y2="64.5312" gradientUnits="userSpaceOnUse">
<stop stop-color="#494949"/>
<stop offset="1"/>
</linearGradient>
</defs>
</svg>
