<svg width="15" height="20" viewBox="0 0 15 20" fill="none" xmlns="http://www.w3.org/2000/svg">
<path d="M7.50051 0C3.38046 0 0 3.21281 0 7.13164C0 8.63817 0.502241 10.0416 1.35026 11.1955L6.21192 19.2077L6.23264 19.2335C6.42449 19.4723 6.61179 19.6607 6.83169 19.7993C7.0516 19.938 7.32458 20.0209 7.59251 19.9954C8.12787 19.9443 8.4557 19.5838 8.76685 19.1819L8.78353 19.1612L14.1507 10.4524L14.1537 10.4469C14.2796 10.23 14.3726 10.0093 14.4515 9.79432C14.8135 8.94902 14.9998 8.0447 15 7.13164C15 3.21281 11.6206 0 7.50051 0ZM7.50051 4.10727C9.2878 4.10727 10.6828 5.43476 10.6828 7.1314C10.6828 8.82853 9.2878 10.1555 7.50051 10.1555C5.71296 10.1555 4.3172 8.82829 4.3172 7.1314C4.3172 5.435 5.71321 4.10727 7.50051 4.10727Z" fill="#414141"/>
</svg>
