<svg width="9" height="8" viewBox="0 0 9 8" fill="none" xmlns="http://www.w3.org/2000/svg">
<path d="M8.00225 2.69965L5.70393 2.34987L4.67652 0.168732C4.64846 0.109013 4.60229 0.0606698 4.54526 0.0312845C4.40224 -0.0426524 4.22844 0.0189617 4.15693 0.168732L3.12952 2.34987L0.831205 2.69965C0.767841 2.70913 0.709908 2.74041 0.665553 2.78781C0.61193 2.84552 0.582381 2.92317 0.5834 3.00369C0.584418 3.0842 0.61592 3.161 0.670984 3.21721L2.33385 4.91492L1.94099 7.31218C1.93177 7.36795 1.93767 7.4253 1.958 7.47774C1.97833 7.53017 2.01228 7.5756 2.05601 7.60885C2.09974 7.64211 2.15149 7.66187 2.2054 7.6659C2.25931 7.66992 2.31321 7.65805 2.361 7.63163L4.41673 6.49982L6.47245 7.63163C6.52857 7.66291 6.59375 7.67334 6.65621 7.66196C6.81371 7.63352 6.91962 7.47712 6.89246 7.31218L6.4996 4.91492L8.16247 3.21721C8.20773 3.17076 8.2376 3.1101 8.24665 3.04374C8.27109 2.87786 8.16066 2.7243 8.00225 2.69965Z" fill="url(#paint0_linear_86_532)"/>
<defs>
<linearGradient id="paint0_linear_86_532" x1="-2.30951" y1="-0.49569" x2="-0.191934" y2="10.1656" gradientUnits="userSpaceOnUse">
<stop stop-color="#FF7116"/>
<stop offset="1" stop-color="#FB9E48"/>
</linearGradient>
</defs>
</svg>
