<svg width="17" height="19" viewBox="0 0 17 19" fill="none" xmlns="http://www.w3.org/2000/svg">
<path d="M16.4111 4.80973L8.88226 0.708168C8.75509 0.63617 8.61084 0.598267 8.46399 0.598267C8.31715 0.598267 8.17289 0.63617 8.04572 0.708168L0.516877 4.80973C0.390774 4.88304 0.28653 4.98755 0.214589 5.11281C0.142649 5.23806 0.105538 5.37965 0.106974 5.5234V13.7265C0.107229 13.8719 0.146867 14.0146 0.221831 14.14C0.296795 14.2654 0.404392 14.369 0.533609 14.4402L8.06245 18.5418C8.18962 18.6138 8.33388 18.6517 8.48072 18.6517C8.62757 18.6517 8.77182 18.6138 8.89899 18.5418L16.4278 14.4402C16.5539 14.3669 16.6582 14.2624 16.7301 14.1371C16.8021 14.0119 16.8392 13.8703 16.8377 13.7265V5.5234C16.8375 5.37805 16.7978 5.23537 16.7229 5.10997C16.6479 4.98457 16.5403 4.88095 16.4111 4.80973ZM8.47236 2.357L14.2779 5.5234L8.47236 8.68981L2.66678 5.5234L8.47236 2.357ZM1.78005 6.91793L7.63582 10.1089V16.4336L1.78005 13.2425V6.91793ZM9.3089 16.4336V10.1089L15.1647 6.91793V13.2425L9.3089 16.4336Z" fill="white"/>
</svg>
